<?xml version="1.0" standalone="no"?>
<!DOCTYPE svg PUBLIC "-//W3C//DTD SVG 20010904//EN"
 "http://www.w3.org/TR/2001/REC-SVG-20010904/DTD/svg10.dtd">
<svg version="1.0" xmlns="http://www.w3.org/2000/svg"
 width="2048.000000pt" height="2048.000000pt" viewBox="0 0 2048.000000 2048.000000"
 preserveAspectRatio="xMidYMid meet">
<metadata>
Created by potrace 1.16, written by Peter Selinger 2001-2019
</metadata>
<g transform="translate(0.000000,2048.000000) scale(0.100000,-0.100000)"
fill="#000000" stroke="none">
<path d="M0 10240 l0 -10240 10240 0 10240 0 0 10240 0 10240 -10240 0 -10240
0 0 -10240z m19237 788 c2 -5855 -1 -7769 -9 -7774 -7 -4 -14 -1 -16 7 -3 8
-46 56 -96 108 -209 216 -296 308 -296 315 0 3 -16 21 -35 40 -19 20 -35 38
-35 41 0 4 -19 26 -42 49 -42 42 -175 185 -237 255 -17 19 -31 43 -31 53 0 10
-4 18 -10 18 -5 0 -29 20 -53 44 l-44 44 2 6778 c1 4356 -1 6794 -8 6821 -6
27 -16 45 -28 48 -36 12 -15922 7 -15951 -4 l-28 -11 -1 -692 c0 -381 0 -2026
1 -3654 0 -1826 -3 -2971 -9 -2986 -5 -14 -23 -31 -40 -38 -17 -7 -31 -18 -31
-25 0 -12 -94 -115 -265 -292 -98 -101 -110 -115 -118 -136 -3 -9 -13 -17 -22
-17 -8 0 -15 -5 -15 -12 0 -6 -7 -18 -15 -27 -34 -38 -225 -228 -246 -247 -28
-24 -50 -50 -83 -101 -14 -21 -33 -48 -43 -60 -17 -22 -18 14 -15 1020 1 573
3 2651 5 4617 l2 3575 170 5 c94 3 4101 5 8905 5 l8735 0 2 -7767z m-12038
3490 c20 -23 83 -92 141 -153 58 -60 142 -148 185 -195 44 -46 112 -118 151
-160 39 -41 89 -95 110 -119 22 -25 64 -70 94 -101 30 -30 89 -91 130 -135 41
-44 119 -128 175 -186 108 -113 342 -362 395 -419 27 -29 227 -243 295 -315
11 -11 42 -45 69 -75 78 -86 296 -320 346 -371 25 -25 92 -96 150 -159 58 -62
120 -129 139 -149 18 -20 79 -85 135 -145 134 -146 256 -275 397 -421 64 -66
140 -147 169 -180 29 -33 112 -123 184 -199 72 -77 147 -157 166 -180 19 -22
55 -61 80 -86 52 -53 208 -223 240 -260 12 -14 58 -63 103 -110 45 -47 100
-105 121 -130 22 -25 89 -97 150 -161 61 -63 126 -133 145 -155 37 -43 113
-125 230 -249 174 -185 274 -290 406 -431 77 -82 153 -160 169 -173 60 -51 57
-111 59 1079 l2 1085 1590 3 c875 1 1600 0 1613 -3 l22 -5 0 -2563 0 -2562 66
-75 c63 -71 116 -128 313 -335 47 -50 106 -113 130 -140 38 -44 199 -218 305
-329 21 -23 70 -77 110 -120 39 -43 89 -98 111 -120 22 -23 85 -91 140 -151
55 -60 111 -122 125 -136 35 -36 211 -228 232 -252 10 -11 52 -56 94 -101 106
-112 180 -191 238 -256 27 -30 81 -89 120 -130 39 -42 118 -127 176 -190 58
-63 141 -153 186 -200 45 -47 99 -105 120 -130 21 -25 71 -79 110 -120 40 -41
96 -102 126 -135 29 -32 94 -102 144 -155 145 -152 155 -162 244 -261 87 -96
130 -143 371 -399 74 -80 160 -172 189 -205 30 -33 61 -67 70 -75 16 -14 177
-188 379 -410 89 -97 194 -208 284 -302 70 -73 122 -68 -714 -68 l-751 0 -26
29 c-15 16 -36 40 -47 53 -60 71 -103 119 -154 173 -32 33 -129 136 -217 230
-87 93 -168 179 -179 191 -11 11 -65 70 -120 130 -55 59 -116 124 -135 144
-19 20 -60 63 -89 95 -30 33 -100 108 -155 166 -56 58 -148 156 -206 219 -58
62 -110 118 -115 124 -6 6 -39 43 -75 81 -106 116 -367 394 -536 571 -11 12
-31 34 -43 50 -12 16 -57 65 -100 109 -42 44 -108 114 -146 155 -38 41 -100
109 -139 150 -39 41 -123 131 -186 200 -63 68 -126 136 -140 150 -45 48 -221
238 -240 260 -10 11 -81 87 -157 168 -185 194 -254 270 -289 312 -16 19 -36
42 -44 50 -36 39 -141 153 -214 234 -43 48 -112 122 -152 164 l-73 77 -1 2260
c0 1243 -4 2266 -9 2273 -12 19 -1039 18 -1059 -1 -10 -10 -12 -406 -12 -1975
0 -1569 -2 -1962 -12 -1962 -19 0 -62 41 -184 175 -128 141 -103 114 -234 255
-58 63 -127 137 -155 165 -27 29 -72 76 -100 106 -27 30 -106 115 -176 189
-133 143 -154 165 -208 226 -19 22 -84 91 -145 154 -258 268 -314 327 -345
365 -18 22 -79 87 -135 145 -55 58 -135 143 -176 189 -41 46 -97 105 -124 130
-27 25 -94 96 -149 156 -55 61 -135 146 -177 190 -42 44 -105 112 -140 150
-91 99 -333 356 -410 434 -36 37 -78 82 -93 101 -16 19 -86 96 -156 170 -70
74 -152 162 -182 195 -29 33 -97 105 -150 160 -53 55 -116 122 -140 150 -24
27 -96 104 -160 170 -64 66 -136 142 -160 170 -24 27 -66 73 -94 101 -27 28
-72 77 -100 110 -27 32 -104 115 -171 184 -66 69 -151 159 -188 200 -38 41
-89 96 -115 121 -25 25 -70 72 -99 105 -30 32 -100 107 -155 165 -56 58 -151
158 -212 223 -60 64 -136 145 -168 179 -32 34 -79 85 -105 112 -25 28 -82 88
-126 135 -45 47 -115 123 -156 170 -41 47 -93 103 -115 125 -22 22 -87 92
-144 155 -58 63 -133 144 -167 180 -34 36 -75 81 -91 100 -15 19 -41 48 -56
64 -16 16 -36 40 -44 53 -13 19 -22 23 -42 18 -14 -4 -35 -16 -45 -28 -42 -48
-127 -139 -256 -276 -74 -79 -139 -149 -145 -155 -5 -7 -39 -43 -75 -82 -133
-142 -177 -191 -240 -263 -36 -41 -74 -84 -85 -96 -105 -111 -378 -404 -441
-475 -46 -50 -103 -114 -228 -250 -57 -63 -143 -155 -266 -286 -47 -49 -123
-132 -170 -184 -102 -114 -309 -338 -401 -435 -36 -38 -103 -113 -149 -165
-45 -52 -119 -134 -164 -181 -123 -129 -182 -194 -281 -304 -95 -106 -151
-167 -306 -329 -53 -56 -118 -126 -144 -156 -26 -30 -72 -80 -101 -110 -29
-30 -61 -64 -71 -76 -29 -34 -222 -240 -298 -319 -38 -40 -85 -90 -104 -111
-19 -22 -62 -68 -95 -104 -34 -36 -83 -90 -110 -120 -102 -113 -163 -178 -265
-285 -126 -131 -210 -222 -346 -370 -55 -60 -141 -152 -192 -205 -50 -52 -101
-106 -113 -120 -25 -30 -90 -100 -179 -195 -36 -39 -95 -103 -131 -144 -35
-41 -101 -111 -145 -155 -44 -45 -108 -113 -142 -151 -34 -39 -64 -67 -67 -64
-4 4 -9 1443 -6 1671 0 9 10 28 23 41 40 44 166 183 184 204 10 11 72 78 138
148 66 71 134 143 150 161 17 17 74 79 127 136 53 56 106 116 118 131 12 15
63 69 112 120 49 51 128 135 175 187 48 52 125 136 172 185 47 50 113 122 146
160 33 39 87 97 120 130 33 34 80 83 104 110 24 28 87 95 140 150 53 56 118
125 145 155 58 65 147 160 231 249 33 35 70 77 82 93 12 16 68 78 125 137 56
59 141 150 188 201 47 52 115 126 151 165 36 38 81 88 100 110 19 22 54 60 79
86 25 25 92 97 150 160 58 62 135 146 172 184 108 114 148 157 186 205 20 25
67 77 104 115 36 39 75 80 85 91 28 33 203 223 252 274 24 25 80 86 124 135
45 50 111 122 147 160 127 137 325 349 350 374 14 14 61 67 104 116 44 50 103
115 132 145 117 124 148 157 187 200 22 25 77 83 121 130 45 47 109 117 143
155 34 39 88 97 120 131 32 33 84 90 117 125 257 281 431 459 449 459 6 0 26
-19 46 -42z"/>
</g>
</svg>
