<svg xmlns="http://www.w3.org/2000/svg" width="512" height="512" viewBox="0 0 512 512">
<g>
<path d="M 481.75 236.75 C481.89,345.67 481.62,432.00 481.14,432.00 C480.67,432.00 476.53,427.84 471.96,422.75 C467.38,417.66 462.25,412.01 460.57,410.19 L 457.50 406.89 L 456.50 66.50 L 60.23 66.00 L 59.74 69.25 C59.47,71.04 59.21,112.27 59.16,160.87 L 59.08 249.25 L 53.29 255.37 C50.10,258.74 44.68,264.59 41.25,268.38 L 35.00 275.25 L 35.00 41.00 L 258.25 41.25 L 481.50 41.50 Z" fill="rgb(140,140,134)"/>
<path d="M 498.89 476.25 L 501.37 479.00 L 461.36 479.00 L 459.00 476.25 C457.70,474.74 443.82,459.77 428.15,443.00 C376.59,387.77 369.52,380.13 364.71,374.39 C363.06,372.42 362.94,368.41 362.98,315.64 L 363.03 259.00 L 351.76 258.99 C345.57,258.98 339.49,258.70 338.25,258.37 L 336.00 257.77 L 335.95 358.50 L 329.22 351.46 C320.31,342.13 269.36,287.62 260.60,278.04 C256.81,273.89 250.49,267.12 246.55,263.00 C240.03,256.16 230.77,246.30 195.35,208.47 C188.68,201.34 182.29,194.38 181.17,193.00 C179.37,190.79 178.96,190.68 177.72,192.00 C174.85,195.06 129.38,244.65 125.91,248.50 C123.93,250.70 112.68,262.87 100.90,275.54 C89.13,288.21 69.64,309.25 57.59,322.29 C45.53,335.33 35.30,346.00 34.84,346.00 C34.38,346.00 34.00,336.49 34.00,324.86 L 34.00 303.72 L 38.75 298.15 C41.36,295.09 48.02,287.85 53.55,282.05 C59.07,276.25 65.84,269.02 68.59,266.00 C80.07,253.38 98.82,233.06 104.58,227.00 C107.97,223.43 116.06,214.65 122.54,207.50 C129.03,200.35 141.88,186.40 151.11,176.50 C160.34,166.60 170.29,155.87 173.23,152.66 L 178.58 146.82 L 193.04 162.14 C232.47,203.91 248.84,221.43 278.00,253.04 C301.18,278.16 305.53,282.75 306.75,283.34 C307.73,283.81 308.00,278.20 308.00,256.97 L 308.00 230.00 L 390.04 230.00 L 389.98 294.46 C389.92,355.12 390.02,359.02 391.71,360.75 C392.69,361.76 398.67,368.17 405.00,374.99 C411.33,381.82 423.02,394.40 431.00,402.97 C438.98,411.53 450.22,423.70 455.98,430.02 C461.75,436.33 473.20,448.70 481.44,457.50 C489.67,466.30 497.52,474.74 498.89,476.25 Z" fill="rgb(200,183,153)"/>
<path d="M 0.00 256.00 L 0.00 0.00 L 256.00 0.00 L 512.00 0.00 L 512.00 256.00 L 512.00 512.00 L 256.00 512.00 L 0.00 512.00 L 0.00 256.00 ZM 498.89 476.25 C497.52,474.74 489.67,466.30 481.44,457.50 C473.20,448.70 461.75,436.33 455.98,430.02 C450.22,423.70 438.98,411.53 431.00,402.97 C423.02,394.40 411.33,381.82 405.00,374.99 C398.67,368.17 392.69,361.76 391.71,360.75 C390.02,359.02 389.92,355.12 389.98,294.46 L 390.04 230.00 L 349.02 230.00 L 308.00 230.00 L 308.00 256.97 C308.00,278.20 307.73,283.81 306.75,283.34 C305.53,282.75 301.18,278.16 278.00,253.04 C248.84,221.43 232.47,203.91 193.04,162.14 L 178.58 146.82 L 173.23 152.66 C170.29,155.87 160.34,166.60 151.11,176.50 C141.88,186.40 129.03,200.35 122.54,207.50 C116.06,214.65 107.97,223.43 104.58,227.00 C98.82,233.06 80.07,253.38 68.59,266.00 C65.84,269.02 59.07,276.25 53.55,282.05 C48.02,287.85 41.36,295.09 38.75,298.15 L 34.00 303.72 L 34.00 324.86 C34.00,336.49 34.38,346.00 34.84,346.00 C35.30,346.00 45.53,335.33 57.59,322.29 C69.64,309.25 89.13,288.21 100.90,275.54 C112.68,262.87 123.93,250.70 125.91,248.50 C129.38,244.65 174.85,195.06 177.72,192.00 C178.96,190.68 179.37,190.79 181.17,193.00 C182.29,194.38 188.68,201.34 195.35,208.47 C230.77,246.30 240.03,256.16 246.55,263.00 C250.49,267.12 256.81,273.89 260.60,278.04 C269.36,287.62 320.31,342.13 329.22,351.46 L 335.95 358.50 L 335.97 308.13 L 336.00 257.77 L 338.25 258.37 C339.49,258.70 345.57,258.98 351.76,258.99 L 363.03 259.00 L 362.98 315.64 C362.94,368.41 363.06,372.42 364.71,374.39 C369.52,380.13 376.59,387.77 428.15,443.00 C443.82,459.77 457.70,474.74 459.00,476.25 L 461.36 479.00 L 481.37 479.00 L 501.37 479.00 L 498.89 476.25 ZM 481.75 236.75 L 481.50 41.50 L 258.25 41.25 L 35.00 41.00 L 35.00 158.12 L 35.00 275.25 L 41.25 268.38 C44.68,264.59 50.10,258.74 53.29,255.37 L 59.08 249.25 L 59.16 160.87 C59.21,112.27 59.47,71.04 59.74,69.25 L 60.23 66.00 L 258.36 66.25 L 456.50 66.50 L 457.00 236.69 L 457.50 406.89 L 460.57 410.19 C462.25,412.01 467.38,417.66 471.96,422.75 C476.53,427.84 480.67,432.00 481.14,432.00 C481.62,432.00 481.89,345.67 481.75,236.75 Z" fill="rgb(254,254,254)"/>
</g>
</svg>